# xmcd
#
# Track frame offsets:
#	182
#	11440
#	23585
#	34652
#	45760
#	59107
#	67892
#	82937
#	97985
#	109617
#	120937
#	137822
#
# Disc length: 2148
#
# Revision: 3
# Processed by: cddbd v1.5.1PL0 Copyright (c) Steve Scherf et al.
# Submitted via: EasyCDDAExtractor 5.0.5.1
# Normalized: r2:DSETVAR1
#
DISCID=8408620c
DTITLE=Various Artist - The Blues Collection-Disk 1
DYEAR=1996
DGENRE=Blues
TTITLE0=Billie Holiday - I've Got It Bad And That Ain't Good
TTITLE1=Joe Turner - The Stuff You Gotta Watch
TTITLE2=B. B. King - Catfish Blues
TTITLE3=Roy Milton - Information Blues
TTITLE4=Elmore James - Dust My Broom
TTITLE5=Billie Holiday - Please Don't Talk About Me When I'm Gone
TTITLE6=Joe Turner - Iodine In My Coffee
TTITLE7=B. B. King - B. B. Boogie
TTITLE8=Billie Holiday - Nice Work If You Can Get It
TTITLE9=John Lee Hooker - Boom Boom
TTITLE10=Johnny Otis - Barrelhouse Blues
TTITLE11=Pee Wee Crayton - Blues After Hours
EXTD=
EXTT0=
EXTT1=
EXTT2=
EXTT3=
EXTT4=
EXTT5=
EXTT6=
EXTT7=
EXTT8=
EXTT9=
EXTT10=
EXTT11=
PLAYORDER=
